<svg id="ic_guardian_selected" xmlns="http://www.w3.org/2000/svg" width="24" height="24" viewBox="0 0 24 24">
  <rect id="Retângulo_785" data-name="Retângulo 785" width="24" height="24" fill="#fff" opacity="0"/>
  <path id="Caminho_883" data-name="Caminho 883" d="M12,1A34.868,34.868,0,0,1,7.76,3.292,40.824,40.824,0,0,1,3,5v6c0,5.55,3.84,10.74,9,12,5.16-1.26,9-6.45,9-12V5a40.394,40.394,0,0,1-4.783-1.708A33.428,33.428,0,0,1,12,1Z" fill="none" stroke="#fff" stroke-linecap="round" stroke-linejoin="round" stroke-width="1"/>
  <path id="Caminho_884" data-name="Caminho 884" d="M11.962,3.474a27.39,27.39,0,0,1-3.323,1.8A32.019,32.019,0,0,1,4.908,6.616V11.33a9.772,9.772,0,0,0,7.054,9.426c.038-6.81.043-7.316,0-17.282" fill="#93c27b" fill-rule="evenodd"/>
  <path id="Caminho_885" data-name="Caminho 885" d="M12.079,8.078a1.786,1.786,0,0,0-1.7,1.367c-.013.118-.014.517-.008.988h3.416c.006-.442.006-.824,0-.98a1.812,1.812,0,0,0-1.7-1.375m0-1.008A2.826,2.826,0,0,1,14.77,9.253c.056.208,0,2.188,0,2.188H9.382s-.06-1.9,0-2.163a2.8,2.8,0,0,1,2.7-2.208" fill="#fff"/>
  <path id="Caminho_886" data-name="Caminho 886" d="M15.227,16.4H8.63a.538.538,0,0,1-.537-.537V11.218a.539.539,0,0,1,.537-.538h6.6a.538.538,0,0,1,.537.538v4.641a.537.537,0,0,1-.537.537M12,12.034a.6.6,0,0,0-.6.6v1.053a.6.6,0,0,0,1.2,0V12.636a.6.6,0,0,0-.6-.6" fill="#fff"/>
</svg>
