<svg xmlns="http://www.w3.org/2000/svg" width="22.048" height="18.52" viewBox="0 0 22.048 18.52">
  <path id="ic_home_selected" d="M21.87,8.53,11.97.33a1.532,1.532,0,0,0-1.9,0L.18,8.53a.516.516,0,0,0-.07.71.505.505,0,0,0,.71.06L2.53,7.88v8.35l-.01.42c0,.29,0,.59.01.87a.979.979,0,0,0,.95,1H9a.98.98,0,0,0,.93-.99V12.1a.277.277,0,0,0,.01-.09,1.214,1.214,0,0,1,1.04-1.3,1.226,1.226,0,0,1,1.13,1.3v5.52a.992.992,0,0,0,.96.99h5.52a.98.98,0,0,0,.93-.99V7.88L21.23,9.3a.472.472,0,0,0,.32.12.493.493,0,0,0,.38-.18.505.505,0,0,0-.06-.71m-8.76,9.01V12.02a.34.34,0,0,0-.01-.1,2.222,2.222,0,0,0-2.12-2.2,2.219,2.219,0,0,0-2.04,2.2.34.34,0,0,0-.01.1l.04,5.5L3.53,17.5c-.01-.28-.01-.56-.01-.84l.01-9.6,7.18-5.95a.5.5,0,0,1,.62-.01l7.19,5.96V8.32l.04,9.2Z" transform="translate(0)" fill="#fff"/>
</svg>
