<svg xmlns="http://www.w3.org/2000/svg" width="24" height="24" viewBox="0 0 24 24">
  <g id="ic_isic_active" transform="translate(-137 -8)">
    <rect id="Retângulo_784" data-name="Retângulo 784" width="24" height="24" transform="translate(137 8)" fill="#fff" opacity="0"/>
    <g id="isic_cam" transform="translate(-694.924 -427.71)" fill="none" stroke-linecap="round" stroke-linejoin="round">
      <path d="M848.319,454.3l.671-.793,4.608.183-1.434,1.923Zm-1.406-.716a.713.713,0,1,1,.708.629.672.672,0,0,1-.708-.629Zm-1.707-3.282,2.044-.64.488,2.655-1.129.671Zm-8.863-3.472.391-.154,1.9,4.823-.39.154Zm.812-.26,3.047,1.139.788,1.949-1.947,1.621Zm3.413.59-6.316-2.38,13.743-4.8a2.319,2.319,0,0,1,3.019,1.281h0l1.25,3.092c.479,1.188.324,2.6-.864,3.078l-9.306,3.387Z" stroke="none"/>
      <path d="M 839.459228515625 449.6284790039062 L 839.7894287109375 449.3535461425781 L 839.4398803710938 448.4891357421875 L 838.9253540039062 448.296875 L 839.459228515625 449.6284790039062 M 842.6492919921875 449.5526428222656 L 851.0387573242188 446.4990539550781 C 851.1925659179688 446.4344177246094 851.398681640625 446.3039855957031 851.4822387695312 445.9365844726562 C 851.5606689453125 445.5917053222656 851.5076904296875 445.1513671875 851.3370971679688 444.7288208007812 L 850.0905151367188 441.6447448730469 C 850.08935546875 441.6419067382812 850.0881958007812 441.6390380859375 850.0870361328125 441.6361999511719 C 849.8843994140625 441.1349182128906 849.4042358398438 440.81103515625 848.8636474609375 440.81103515625 C 848.6950073242188 440.81103515625 848.5289916992188 440.8435668945312 848.3701782226562 440.9077758789062 C 848.3552856445312 440.9137878417969 848.3402099609375 440.9194641113281 848.3250122070312 440.9247741699219 L 837.1835327148438 444.8133239746094 L 840.9204711914062 446.221435546875 C 841.178466796875 446.3186340332031 841.3848876953125 446.51806640625 841.490966796875 446.7725830078125 L 842.6492919921875 449.5526428222656 M 852.1627807617188 455.609130859375 L 848.318603515625 454.2968139648438 L 848.9894409179688 453.5036010742188 L 853.5969848632812 453.6865844726562 L 852.1627807617188 455.609130859375 Z M 847.6204833984375 454.2107238769531 C 847.2301635742188 454.2107238769531 846.91259765625 453.92919921875 846.91259765625 453.5814208984375 L 846.91259765625 453.5812377929688 C 846.91259765625 453.2340087890625 847.2294921875 452.9523315429688 847.6204833984375 452.9523315429688 C 848.0115356445312 452.9523315429688 848.328369140625 453.2340087890625 848.328369140625 453.5812377929688 C 848.328369140625 453.9284973144531 848.0108032226562 454.2107238769531 847.6204833984375 454.2107238769531 Z M 846.609619140625 452.9845581054688 L 845.205810546875 450.2994995117188 L 847.250244140625 449.6590270996094 L 847.7385864257812 452.3135375976562 L 846.609619140625 452.9845581054688 Z M 838.2423095703125 451.650146484375 L 836.3426513671875 446.827392578125 L 836.733154296875 446.6735229492188 L 838.63232421875 451.4962768554688 L 838.2423095703125 451.650146484375 Z M 839.0426635742188 451.276611328125 L 837.1547241210938 446.5676574707031 L 840.2020263671875 447.7063903808594 L 840.9900512695312 449.6551208496094 L 839.0426635742188 451.276611328125 Z M 842.0936279296875 450.819091796875 L 840.56787109375 447.1571960449219 L 834.2520141601562 444.77734375 L 847.9954833984375 439.9806213378906 C 849.1828002929688 439.500732421875 850.5342407226562 440.0741882324219 851.01416015625 441.261474609375 L 851.0146484375 441.2625732421875 L 852.2642211914062 444.3540954589844 C 852.7437133789062 445.5417175292969 852.587890625 446.95166015625 851.3998413085938 447.4317932128906 L 842.0936279296875 450.819091796875 Z" stroke="none" fill="#253b40"/>
    </g>
  </g>
</svg>
