<?xml version="1.0" encoding="UTF-8"?><svg id="Layer_1" xmlns="http://www.w3.org/2000/svg" viewBox="0 0 190.17 177.38"><defs><style>.cls-1,.cls-2{fill:#fff;}.cls-2{fill-rule:evenodd;}</style></defs><g id="Group_4882"><g id="Group_4883"><path id="Path_2926" class="cls-1" d="m124.8,83.31l-41.75-24.22c-2.47-1.69-5.84-1.05-7.53,1.42-.65.95-.98,2.08-.94,3.24v48.48c-.1,2.99,2.25,5.5,5.24,5.6,1.15.04,2.28-.29,3.23-.93l41.75-24.22c2.58-1.51,3.45-4.84,1.94-7.42-.47-.8-1.14-1.47-1.94-1.94"/><path id="Path_2927" class="cls-2" d="m88.86,10.08c3.45-2.18,7.84-2.17,11.28.03,8.1,5.19,16.56,9.79,25.32,13.77,9.44,4.05,19.12,7.51,28.99,10.35,4.5,1.3,7.59,5.41,7.59,10.09v38.04c0,39.6-27.25,77.05-65.07,86.29-1.64.4-3.34.4-4.98,0-37.83-9.24-65.07-46.68-65.07-86.29v-38.04c0-4.67,3.08-8.78,7.57-10.08,9.82-2.85,19.46-6.31,28.86-10.35,8.81-4.01,17.34-8.62,25.52-13.8m-21.27,23.4c-9.83,4.23-19.91,7.85-30.18,10.83v38.04c0,35.2,24.35,68.11,57.07,76.09,32.71-7.99,57.06-40.9,57.06-76.09v-38.04c-10.33-2.97-20.46-6.59-30.33-10.83-9.25-4.2-18.18-9.05-26.73-14.53-8.62,5.46-17.6,10.31-26.89,14.53"/></g></g></svg>