<svg id="SIMNEXT_3_blue" data-name="SIMNEXT 3 blue" xmlns="http://www.w3.org/2000/svg" xmlns:xlink="http://www.w3.org/1999/xlink" width="54.707" height="46.519" viewBox="0 0 54.707 46.519">
  <defs>
    <clipPath id="clip-path">
      <rect id="Rectangle_4014" data-name="Rectangle 4014" width="54.707" height="46.519" fill="#253b40"/>
    </clipPath>
  </defs>
  <g id="Group_5137" data-name="Group 5137" clip-path="url(#clip-path)">
    <path id="Path_3227" data-name="Path 3227" d="M54.621,18.531c-.6-9.01-3.357-13.559-5.567-15.788A8.861,8.861,0,0,0,44.222,0L5.395,1.9h-.03c-.065,0-.142,0-.229,0-1.03,0-3.551.207-4.708,2.124-.447.74-.769,2.018.24,3.9a11.2,11.2,0,0,0,7.652,5.381l.344.074-.056.347a32.444,32.444,0,0,0-.181,8.286,28.442,28.442,0,0,0,3.667,11.807,9.776,9.776,0,0,0,4.963,4.466,5.181,5.181,0,0,0,1.576.248c.142,0,.285-.006.44-.019l.034,0c1.39-.058,20.315-1.191,27.456-2.034,6.033-.713,8.67-6.587,8.06-17.954M18.959,36.438a2.864,2.864,0,0,1-.3.016c-1.63,0-3.351-1.33-4.844-3.746A26.291,26.291,0,0,1,10.45,21.8a28.9,28.9,0,0,1,.421-9.074,1.062,1.062,0,0,0-.181-.863,1.008,1.008,0,0,0-.754-.412c-.052,0-5.272-.39-7.485-4.529-.3-.553-.587-1.314-.3-1.8.494-.82,1.988-1.112,3.22-1.112l.266,0,.187.143,8.943,8.955-.374.252a5.4,5.4,0,0,0-1.893,2.7,14.1,14.1,0,0,0-.6,6.077c.426,4.164,2.211,7.44,4.442,8.152a2.938,2.938,0,0,0,.893.141,2.885,2.885,0,0,0,.3-.016c2.7-.287,4.356-4.279,3.844-9.285A14.753,14.753,0,0,0,19.9,15.909l-.266-.507,3.722-.237.078.3a31.661,31.661,0,0,1,.886,4.872A26.425,26.425,0,0,1,23.24,31.709c-1.028,2.826-2.588,4.55-4.282,4.729m-3.01-21.6c.031,0,.064,0,.1,0a1.073,1.073,0,0,1,.327.054,3.309,3.309,0,0,1,1.558,1.491,12.136,12.136,0,0,1,1.522,4.959c.43,4.21-.939,6.968-2.109,7.092a.816.816,0,0,1-.092,0c-1.122,0-2.982-2.316-3.41-6.5a12.206,12.206,0,0,1,.486-5.172c.42-1.155,1.012-1.855,1.623-1.92m36.369,5.209a37.324,37.324,0,0,1-.862,7.666c-.993,4.159-2.718,6.411-5.128,6.7-5.361.633-14.8,1.457-22.484,1.808l-.758.035.438-.62a13.584,13.584,0,0,0,1.621-3.2,28.564,28.564,0,0,0,1.2-12.324,34.459,34.459,0,0,0-.762-4.5l-.239-1L33.1,20.39a1.664,1.664,0,0,0,.983.327h.047l18.186-1.064ZM34.908,18.5H34.84a1.944,1.944,0,0,1-1.157-.385L27,13.136a1.69,1.69,0,0,0-1-.331c-.034,0-.068,0-.1,0l-7,.446q-.062,0-.123,0a1.949,1.949,0,0,1-1.368-.57L8.657,3.934,44.078,2.187c.378,0,1.72.417,3.374,2.32,1.579,1.818,3.7,5.5,4.824,12.7l.064.408Z" transform="translate(0 0.001)" fill="#253b40"/>
    <path id="Path_3228" data-name="Path 3228" d="M105.715,155.723l14.89-.318v-7.381l-14.89,1.106Zm1.741-4.977,11.408-.848v3.8l-11.408.244Z" transform="translate(-77.991 -109.204)" fill="#253b40"/>
  </g>
</svg>
